<?xml version="1.0" standalone="no"?>
<!DOCTYPE svg PUBLIC "-//W3C//DTD SVG 20010904//EN"
 "http://www.w3.org/TR/2001/REC-SVG-20010904/DTD/svg10.dtd">
<svg version="1.0" xmlns="http://www.w3.org/2000/svg"
 width="1220.000000pt" height="295.000000pt" viewBox="0 0 1220.000000 295.000000"
 preserveAspectRatio="xMidYMid meet">

<g transform="translate(0.000000,295.000000) scale(0.100000,-0.100000)"
fill="#000000" stroke="none">
<path d="M1200 2709 c-559 -6 -533 -3 -673 -76 -126 -66 -249 -210 -298 -347
-37 -107 -40 -171 -37 -876 3 -679 3 -686 25 -743 38 -99 84 -169 162 -247 82
-81 158 -127 269 -163 l67 -22 1680 -3 c1199 -2 1699 0 1745 8 152 26 277 93
370 198 54 61 131 208 149 284 14 61 20 603 12 1093 -7 387 -7 391 -32 457
-84 216 -233 353 -459 418 -75 22 -76 22 -1275 24 -660 0 -1427 -2 -1705 -5z
m834 -503 c72 -46 244 -152 381 -236 138 -84 306 -188 375 -230 69 -42 177
-108 240 -145 136 -80 160 -103 160 -151 0 -37 -29 -73 -83 -101 -39 -20 -601
-350 -1002 -589 -104 -62 -203 -118 -219 -124 -36 -13 -81 2 -98 33 -7 14 -12
256 -15 773 -5 795 -5 808 40 839 45 31 82 20 221 -69z m-550 -57 c39 -30 33
-59 -30 -141 -148 -195 -201 -362 -192 -599 8 -183 56 -314 176 -475 33 -45
63 -91 66 -102 10 -29 -7 -57 -44 -72 -28 -11 -34 -11 -58 7 -83 61 -215 292
-252 443 -47 186 -34 433 30 599 61 158 205 361 257 361 11 0 32 -9 47 -21z
m2000 -8 c34 -30 103 -125 144 -201 139 -254 158 -564 51 -841 -53 -136 -175
-320 -225 -339 -51 -20 -103 34 -84 84 5 14 32 53 60 87 59 74 132 217 157
309 25 94 25 338 -1 435 -25 97 -85 218 -145 295 -73 93 -85 119 -72 153 18
47 72 56 115 18z m-1826 -207 c36 -25 28 -66 -26 -148 -72 -107 -97 -194 -97
-336 0 -144 24 -226 95 -333 28 -41 50 -86 50 -100 0 -29 -41 -67 -73 -67 -51
0 -161 179 -191 310 -23 100 -30 216 -17 298 30 192 143 392 221 392 9 0 26
-7 38 -16z m1661 -22 c44 -46 113 -185 137 -273 27 -99 24 -283 -5 -378 -24
-78 -97 -230 -128 -267 -54 -65 -133 -48 -133 29 0 13 14 42 31 63 80 98 124
250 116 399 -5 113 -35 204 -99 302 -26 41 -48 82 -48 91 0 31 44 71 79 72 8
0 30 -17 50 -38z"/>
<path d="M6899 1933 c0 -345 -1 -934 0 -955 1 -16 14 -18 121 -18 l120 0 0
225 c0 241 5 272 53 323 51 55 143 69 204 32 56 -34 58 -43 63 -320 l5 -255
120 0 120 0 0 295 0 295 -33 67 c-39 80 -111 149 -179 172 -64 22 -167 20
-220 -3 -23 -11 -62 -38 -87 -62 l-46 -42 0 247 0 246 -120 0 -120 0 -1 -247z"/>
<path d="M10282 1573 l3 -608 115 0 115 0 3 37 3 37 40 -29 c96 -69 231 -79
342 -25 70 35 154 121 192 199 103 211 12 487 -193 588 -61 30 -74 33 -162 33
-97 0 -150 -17 -202 -63 -17 -14 -18 -4 -18 211 l0 227 -120 0 -120 0 2 -607z
m526 -25 c103 -68 110 -230 15 -320 -134 -127 -350 15 -303 200 27 108 88 155
192 149 40 -2 68 -11 96 -29z"/>
<path d="M5287 2103 c-4 -3 -7 -257 -7 -563 0 -459 2 -560 14 -569 9 -8 125
-10 407 -9 l394 3 3 123 3 122 -276 0 -275 0 0 100 0 100 223 2 222 3 0 115 0
115 -222 3 -223 2 0 105 0 105 270 0 270 0 0 125 0 125 -398 0 c-219 0 -402
-3 -405 -7z"/>
<path d="M8540 1985 l0 -125 180 0 180 0 2 -447 3 -448 125 0 125 0 3 448 2
447 176 0 c157 0 175 2 170 16 -3 9 -6 65 -6 125 l0 109 -480 0 -480 0 0 -125z"/>
<path d="M8142 1809 c-220 -28 -387 -239 -369 -464 12 -137 117 -291 239 -348
205 -96 430 -38 558 144 76 108 98 235 65 364 -39 147 -185 282 -328 300 -86
12 -103 12 -165 4z m185 -266 c55 -44 76 -85 77 -153 2 -117 -90 -206 -206
-198 -189 13 -244 282 -76 367 64 33 154 26 205 -16z"/>
<path d="M6433 1796 c-157 -51 -286 -213 -300 -375 -15 -180 91 -362 254 -439
52 -24 69 -27 168 -27 98 0 116 3 165 26 30 14 78 46 105 72 l50 45 -40 42
c-22 23 -56 55 -76 70 l-35 29 -60 -30 c-73 -38 -132 -36 -195 5 -43 29 -89
109 -89 156 0 161 154 256 299 184 l52 -26 52 58 c98 109 94 99 45 135 -87 64
-143 83 -253 86 -65 2 -115 -2 -142 -11z"/>
<path d="M11453 1791 c-144 -53 -248 -183 -276 -345 -31 -182 74 -382 240
-458 88 -40 226 -50 318 -23 90 26 224 122 199 143 -5 5 -37 34 -71 66 l-62
58 -56 -28 c-112 -54 -209 -41 -284 41 -23 25 -41 49 -41 55 0 7 98 10 285 10
266 0 285 1 285 18 0 10 -5 56 -10 102 -19 153 -107 283 -234 345 -79 39 -213
46 -293 16z m217 -240 c19 -15 40 -42 47 -59 l13 -32 -155 0 -156 0 15 28 c32
62 108 106 166 96 19 -3 51 -18 70 -33z"/>
<path d="M9412 1488 l3 -303 26 -56 c52 -110 139 -169 264 -177 85 -5 167 22
225 74 21 19 39 34 41 34 2 0 4 -21 4 -47 l0 -48 118 -3 117 -3 0 416 0 415
-125 0 -125 0 0 -224 c0 -123 -3 -238 -7 -256 -3 -19 -24 -52 -48 -76 -40 -42
-44 -44 -102 -44 -68 0 -101 18 -131 73 -14 27 -17 68 -20 280 l-4 247 -119 0
-120 0 3 -302z"/>
</g>
</svg>
